<svg width="36" height="36" viewBox="0 0 36 36" fill="none" xmlns="http://www.w3.org/2000/svg">
<mask id="mask0_4_128" style="mask-type:luminance" maskUnits="userSpaceOnUse" x="0" y="0" width="36" height="36">
<path d="M36 0H0V36H36V0Z" fill="white"/>
</mask>
<g mask="url(#mask0_4_128)">
<path d="M30.06 10.2295L21.42 4.18454C19.065 2.53454 15.45 2.62454 13.185 4.37954L5.66999 10.2445C4.16999 11.4145 2.98499 13.8145 2.98499 15.7046V26.0546C2.98499 29.8796 6.08999 32.9996 9.91499 32.9996H26.085C29.91 32.9996 33.015 29.8946 33.015 26.0696V15.8996C33.015 13.8745 31.71 11.3845 30.06 10.2295ZM19.125 26.9996C19.125 27.6146 18.615 28.1246 18 28.1246C17.385 28.1246 16.875 27.6146 16.875 26.9996V22.4996C16.875 21.8846 17.385 21.3746 18 21.3746C18.615 21.3746 19.125 21.8846 19.125 22.4996V26.9996Z" fill="white"/>
</g>
</svg>
